<svg xmlns="http://www.w3.org/2000/svg" viewBox="0 0 1200 360" role="img" aria-labelledby="title desc">
  <title id="title">Prateek Mishra — AI systems and test engineering</title>
  <desc id="desc">A neural network flows through a prism into precise automated test paths.</desc>
  <defs>
    <linearGradient id="bg" x1="0" y1="0" x2="1" y2="1"><stop stop-color="#050816"/><stop offset=".55" stop-color="#0b1027"/><stop offset="1" stop-color="#07101c"/></linearGradient>
    <linearGradient id="flow" x1="0" y1="0" x2="1" y2="0"><stop stop-color="#8b5cf6"/><stop offset=".5" stop-color="#22d3ee"/><stop offset="1" stop-color="#fb7185"/></linearGradient>
    <linearGradient id="gem" x1=".1" y1=".1" x2=".9" y2=".9"><stop stop-color="#f0abfc" stop-opacity=".95"/><stop offset=".42" stop-color="#6366f1" stop-opacity=".72"/><stop offset="1" stop-color="#22d3ee" stop-opacity=".92"/></linearGradient>
    <radialGradient id="halo"><stop stop-color="#7c3aed" stop-opacity=".42"/><stop offset=".55" stop-color="#2563eb" stop-opacity=".12"/><stop offset="1" stop-color="#050816" stop-opacity="0"/></radialGradient>
    <pattern id="grid" width="40" height="40" patternUnits="userSpaceOnUse"><path d="M40 0H0V40" fill="none" stroke="#38bdf8" stroke-opacity=".07"/></pattern>
    <filter id="glow" x="-70%" y="-70%" width="240%" height="240%"><feGaussianBlur stdDeviation="6" result="blur"/><feMerge><feMergeNode in="blur"/><feMergeNode in="SourceGraphic"/></feMerge></filter>
  </defs>
  <rect width="1200" height="360" rx="24" fill="url(#bg)"/><rect width="1200" height="360" rx="24" fill="url(#grid)"/><circle cx="590" cy="180" r="250" fill="url(#halo)"/>
  <g fill="none" stroke-linecap="round" stroke-linejoin="round"><g stroke="#8b5cf6" stroke-opacity=".58"><path d="M0 87C115 72 150 154 263 137S403 69 516 143"/><path d="M0 151C87 133 155 244 272 196S408 111 520 164"/><path d="M0 230C125 275 176 184 285 230S412 258 520 199"/><path d="M0 294C91 254 177 301 279 256S417 203 520 185"/></g><g stroke="url(#flow)" stroke-width="2.5" filter="url(#glow)"><path d="M32 86L126 109L206 73L296 143L385 104L520 162"/><path d="M15 184L112 151L202 205L306 167L395 225L520 186"/><path d="M30 282L130 238L220 285L318 232L412 267L520 199"/></g></g>
  <g fill="#c4b5fd" filter="url(#glow)"><circle cx="32" cy="86" r="4"/><circle cx="126" cy="109" r="5"/><circle cx="206" cy="73" r="4"/><circle cx="296" cy="143" r="5"/><circle cx="385" cy="104" r="4"/><circle cx="15" cy="184" r="3"/><circle cx="112" cy="151" r="5"/><circle cx="202" cy="205" r="4"/><circle cx="306" cy="167" r="5"/><circle cx="395" cy="225" r="4"/><circle cx="30" cy="282" r="4"/><circle cx="130" cy="238" r="5"/><circle cx="220" cy="285" r="4"/><circle cx="318" cy="232" r="5"/><circle cx="412" cy="267" r="4"/></g>
  <g transform="translate(590 180)" filter="url(#glow)"><circle r="116" fill="none" stroke="#38bdf8" stroke-opacity=".19"/><circle r="91" fill="none" stroke="#a78bfa" stroke-opacity=".27" stroke-dasharray="4 9"/><path d="M0-92L70 0L0 92L-70 0Z" fill="url(#gem)" fill-opacity=".3" stroke="url(#flow)" stroke-width="3"/><path d="M0-92V92M-70 0H70M0-92L-20 0L0 92M70 0L-20 0" fill="none" stroke="#e0f2fe" stroke-opacity=".75"/><circle r="8" fill="#fff"/></g>
  <g fill="none" stroke="url(#flow)" stroke-width="3" stroke-linecap="round" stroke-linejoin="round" filter="url(#glow)"><path d="M660 151H739L766 125H864L887 102H1008"/><path d="M660 169H795L820 150H949L975 131H1150"/><path d="M660 187H768L795 207H928L954 229H1081L1108 202H1190"/><path d="M660 205H727L757 242H861L887 268H1022"/></g>
  <g fill="#07101c" stroke="#67e8f9" stroke-width="3" filter="url(#glow)"><circle cx="887" cy="102" r="20"/><circle cx="975" cy="131" r="20"/><circle cx="954" cy="229" r="20"/><circle cx="887" cy="268" r="20"/></g><g fill="none" stroke="#a5f3fc" stroke-width="4" stroke-linecap="round" stroke-linejoin="round"><path d="M878 102l7 7 13-15"/><path d="M966 131l7 7 13-15"/><path d="M945 229l7 7 13-15"/><path d="M878 268l7 7 13-15"/></g>
  <g fill="#22d3ee"><circle cx="739" cy="151" r="5"/><circle cx="795" cy="169" r="5"/><circle cx="768" cy="187" r="5"/><circle cx="727" cy="205" r="5"/></g><circle cx="1150" cy="131" r="8" fill="#fb7185" filter="url(#glow)"/>
</svg>
